<mxfile host="app.diagrams.net" modified="2023-08-29T13:04:33.213Z" agent="Mozilla/5.0 (Windows NT 10.0; Win64; x64) AppleWebKit/537.36 (KHTML, like Gecko) Chrome/116.0.0.0 Safari/537.36" etag="SMduuaXRJmEqF3wGE1P5" version="21.6.9" type="device">
  <diagram name="Página-1" id="W6WZrv1jyUrvYRjRwhhg">
    <mxGraphModel dx="1434" dy="798" grid="1" gridSize="10" guides="1" tooltips="1" connect="1" arrows="1" fold="1" page="1" pageScale="1" pageWidth="827" pageHeight="1169" math="0" shadow="0">
      <root>
        <mxCell id="0" />
        <mxCell id="1" parent="0" />
        <mxCell id="evN6GkmIf6oZHdvLllEK-14" value="Usuários" style="swimlane;childLayout=stackLayout;horizontal=1;startSize=50;horizontalStack=0;rounded=1;fontSize=14;fontStyle=0;strokeWidth=2;resizeParent=0;resizeLast=1;shadow=0;dashed=0;align=center;arcSize=4;whiteSpace=wrap;html=1;" parent="1" vertex="1">
          <mxGeometry x="20" y="10" width="160" height="230" as="geometry" />
        </mxCell>
        <mxCell id="evN6GkmIf6oZHdvLllEK-15" value="+Identificador único (PK)&lt;br&gt;+cpf&lt;br&gt;+nome&lt;br&gt;+email&lt;br&gt;+senha&lt;br&gt;+data de nascimento&lt;br&gt;+altura&lt;br&gt;+data de cadastro&lt;br&gt;+data de atualização&lt;br&gt;+sexo" style="align=left;strokeColor=none;fillColor=none;spacingLeft=4;fontSize=12;verticalAlign=top;resizable=0;rotatable=0;part=1;html=1;" parent="evN6GkmIf6oZHdvLllEK-14" vertex="1">
          <mxGeometry y="50" width="160" height="180" as="geometry" />
        </mxCell>
        <mxCell id="evN6GkmIf6oZHdvLllEK-16" value="Órgãos" style="swimlane;childLayout=stackLayout;horizontal=1;startSize=50;horizontalStack=0;rounded=1;fontSize=14;fontStyle=0;strokeWidth=2;resizeParent=0;resizeLast=1;shadow=0;dashed=0;align=center;arcSize=4;whiteSpace=wrap;html=1;" parent="1" vertex="1">
          <mxGeometry x="20" y="280" width="140" height="150" as="geometry" />
        </mxCell>
        <mxCell id="evN6GkmIf6oZHdvLllEK-17" value="+Identificador único (PK)&lt;br&gt;+orgao superior (FK)&lt;br&gt;+nome&lt;br&gt;+sigla&lt;br&gt;+data de cadastro&lt;br&gt;+data de atualização" style="align=left;strokeColor=none;fillColor=none;spacingLeft=4;fontSize=12;verticalAlign=top;resizable=0;rotatable=0;part=1;html=1;" parent="evN6GkmIf6oZHdvLllEK-16" vertex="1">
          <mxGeometry y="50" width="140" height="100" as="geometry" />
        </mxCell>
        <mxCell id="evN6GkmIf6oZHdvLllEK-18" value="Aferições" style="swimlane;childLayout=stackLayout;horizontal=1;startSize=50;horizontalStack=0;rounded=1;fontSize=14;fontStyle=0;strokeWidth=2;resizeParent=0;resizeLast=1;shadow=0;dashed=0;align=center;arcSize=4;whiteSpace=wrap;html=1;" parent="1" vertex="1">
          <mxGeometry x="580" y="10" width="180" height="270" as="geometry" />
        </mxCell>
        <mxCell id="evN6GkmIf6oZHdvLllEK-19" value="+Identificador único (PK)&lt;br&gt;+paciente (FK)&lt;br&gt;+responsável pela aferição (FK)&lt;br&gt;+peso&lt;br&gt;+circunferência abdominal&lt;br&gt;+percentual de massa muscular&lt;br&gt;+gordura visceral&lt;br&gt;+percentual de gordura&lt;br&gt;+metabolismo&lt;br&gt;+idade metabólica&lt;br&gt;+altura&lt;br&gt;+idade&lt;br&gt;+data da aferição&lt;br&gt;+data de atualização" style="align=left;strokeColor=none;fillColor=none;spacingLeft=4;fontSize=12;verticalAlign=top;resizable=0;rotatable=0;part=1;html=1;" parent="evN6GkmIf6oZHdvLllEK-18" vertex="1">
          <mxGeometry y="50" width="180" height="220" as="geometry" />
        </mxCell>
        <mxCell id="evN6GkmIf6oZHdvLllEK-20" value="Usuários e Orgãos" style="swimlane;childLayout=stackLayout;horizontal=1;startSize=50;horizontalStack=0;rounded=1;fontSize=14;fontStyle=0;strokeWidth=2;resizeParent=0;resizeLast=1;shadow=0;dashed=0;align=center;arcSize=4;whiteSpace=wrap;html=1;" parent="1" vertex="1">
          <mxGeometry x="580" y="300" width="160" height="130" as="geometry" />
        </mxCell>
        <mxCell id="evN6GkmIf6oZHdvLllEK-21" value="+Identificador único (PK)&lt;br&gt;+usuário (FK)&lt;br&gt;+órgão (FK)&lt;br&gt;+data de criação&lt;br&gt;+data de alteração" style="align=left;strokeColor=none;fillColor=none;spacingLeft=4;fontSize=12;verticalAlign=top;resizable=0;rotatable=0;part=1;html=1;" parent="evN6GkmIf6oZHdvLllEK-20" vertex="1">
          <mxGeometry y="50" width="160" height="80" as="geometry" />
        </mxCell>
        <mxCell id="VcpJWqW6QErB6AKsx7lT-1" value="" style="edgeStyle=entityRelationEdgeStyle;fontSize=12;html=1;endArrow=ERzeroToMany;endFill=1;rounded=0;entryX=0;entryY=0.5;entryDx=0;entryDy=0;" edge="1" parent="1" target="evN6GkmIf6oZHdvLllEK-21">
          <mxGeometry width="100" height="100" relative="1" as="geometry">
            <mxPoint x="160" y="405" as="sourcePoint" />
            <mxPoint x="260" y="305" as="targetPoint" />
          </mxGeometry>
        </mxCell>
        <mxCell id="VcpJWqW6QErB6AKsx7lT-2" value="" style="edgeStyle=entityRelationEdgeStyle;fontSize=12;html=1;endArrow=ERzeroToMany;endFill=1;rounded=0;entryX=-0.012;entryY=0.388;entryDx=0;entryDy=0;entryPerimeter=0;" edge="1" parent="1" target="evN6GkmIf6oZHdvLllEK-21">
          <mxGeometry width="100" height="100" relative="1" as="geometry">
            <mxPoint x="180" y="160" as="sourcePoint" />
            <mxPoint x="280" y="60" as="targetPoint" />
            <Array as="points">
              <mxPoint x="270" y="150" />
            </Array>
          </mxGeometry>
        </mxCell>
        <mxCell id="VcpJWqW6QErB6AKsx7lT-3" value="" style="edgeStyle=entityRelationEdgeStyle;fontSize=12;html=1;endArrow=ERzeroToMany;endFill=1;rounded=0;entryX=0;entryY=0.136;entryDx=0;entryDy=0;entryPerimeter=0;" edge="1" parent="1" target="evN6GkmIf6oZHdvLllEK-19">
          <mxGeometry width="100" height="100" relative="1" as="geometry">
            <mxPoint x="180" y="90" as="sourcePoint" />
            <mxPoint x="280" y="-10" as="targetPoint" />
          </mxGeometry>
        </mxCell>
        <mxCell id="VcpJWqW6QErB6AKsx7lT-4" value="" style="edgeStyle=entityRelationEdgeStyle;fontSize=12;html=1;endArrow=ERzeroToMany;endFill=1;rounded=0;entryX=0;entryY=0.182;entryDx=0;entryDy=0;entryPerimeter=0;" edge="1" parent="1" target="evN6GkmIf6oZHdvLllEK-19">
          <mxGeometry width="100" height="100" relative="1" as="geometry">
            <mxPoint x="180" y="120" as="sourcePoint" />
            <mxPoint x="280" y="20" as="targetPoint" />
          </mxGeometry>
        </mxCell>
        <mxCell id="VcpJWqW6QErB6AKsx7lT-5" value="" style="edgeStyle=entityRelationEdgeStyle;fontSize=12;html=1;endArrow=ERzeroToMany;endFill=1;rounded=0;entryX=1;entryY=0.25;entryDx=0;entryDy=0;" edge="1" parent="1" target="evN6GkmIf6oZHdvLllEK-17">
          <mxGeometry width="100" height="100" relative="1" as="geometry">
            <mxPoint x="160" y="340" as="sourcePoint" />
            <mxPoint x="260" y="240" as="targetPoint" />
          </mxGeometry>
        </mxCell>
      </root>
    </mxGraphModel>
  </diagram>
</mxfile>
